<?xml version="1.0" encoding="iso-8859-1"?>
<!-- Generator: Adobe Illustrator 16.0.0, SVG Export Plug-In . SVG Version: 6.00 Build 0)  -->
<!DOCTYPE svg PUBLIC "-//W3C//DTD SVG 1.1//EN" "http://www.w3.org/Graphics/SVG/1.1/DTD/svg11.dtd">
<svg version="1.1" id="Capa_1" xmlns="http://www.w3.org/2000/svg" xmlns:xlink="http://www.w3.org/1999/xlink" x="0px" y="0px"
	 width="573.75px" height="573.75px" viewBox="0 0 573.75 573.75" style="enable-background:new 0 0 573.75 573.75;"
	 xml:space="preserve">
<g>
	<g>
		<polygon points="254.362,344.25 219.938,378.675 185.513,344.25 172.125,357.638 206.55,392.062 172.125,426.487 185.513,439.875 
			219.938,405.45 254.362,439.875 267.75,426.487 233.325,392.062 267.75,357.638 		"/>
		<circle cx="286.875" cy="66.938" r="9.562"/>
		<path d="M372.938,420.75v-51.638L214.2,210.375h63.112V191.25h-95.625v95.625h19.125v-63.112l153,153v43.987
			c-21.037,3.825-38.25,22.95-38.25,47.812c0,26.775,21.037,47.812,47.812,47.812s47.812-21.037,47.812-47.812
			C411.188,445.612,393.975,426.487,372.938,420.75z M363.375,497.25c-15.3,0-28.688-13.388-28.688-28.688
			s13.388-28.688,28.688-28.688s28.688,13.388,28.688,28.688S378.675,497.25,363.375,497.25z"/>
		<path d="M430.312,95.625h-19.125c0-21.038-17.213-38.25-38.25-38.25h-19.125C353.812,24.862,327.037,0,296.438,0h-19.125
			c-32.513,0-57.375,24.862-57.375,57.375h-19.125c-21.038,0-38.25,17.212-38.25,38.25h-19.125c-21.038,0-38.25,17.212-38.25,38.25
			V535.5c0,21.037,17.212,38.25,38.25,38.25h286.875c21.037,0,38.25-17.213,38.25-38.25V133.875
			C468.562,112.837,451.35,95.625,430.312,95.625z M181.688,95.625c0-11.475,7.65-19.125,19.125-19.125h38.25V57.375
			c0-21.038,17.212-38.25,38.25-38.25h19.125c21.037,0,38.25,17.212,38.25,38.25V76.5h38.25c11.475,0,19.125,7.65,19.125,19.125
			v19.125c0,11.475-7.65,19.125-19.125,19.125H200.812c-11.475,0-19.125-7.65-19.125-19.125V95.625z M449.438,535.5
			c0,11.475-7.65,19.125-19.125,19.125H143.438c-9.562,0-19.125-7.65-19.125-19.125V133.875c0-11.475,7.65-19.125,19.125-19.125
			h19.125c0,21.038,17.212,38.25,38.25,38.25h172.125c21.037,0,38.25-17.212,38.25-38.25h19.125c9.562,0,19.125,7.65,19.125,19.125
			V535.5z"/>
		<polygon points="407.362,191.25 372.938,225.675 338.513,191.25 325.125,204.638 359.55,239.062 325.125,273.487 338.513,286.875 
			372.938,252.45 407.362,286.875 420.75,273.487 386.325,239.062 420.75,204.638 		"/>
	</g>
</g>
<g>
</g>
<g>
</g>
<g>
</g>
<g>
</g>
<g>
</g>
<g>
</g>
<g>
</g>
<g>
</g>
<g>
</g>
<g>
</g>
<g>
</g>
<g>
</g>
<g>
</g>
<g>
</g>
<g>
</g>
</svg>
