<?xml version="1.0" encoding="iso-8859-1"?>
<!-- Generator: Adobe Illustrator 19.1.0, SVG Export Plug-In . SVG Version: 6.00 Build 0)  -->
<svg version="1.1" id="Capa_1" xmlns="http://www.w3.org/2000/svg" xmlns:xlink="http://www.w3.org/1999/xlink" x="0px" y="0px"
	 viewBox="0 0 289.739 289.739" style="enable-background:new 0 0 289.739 289.739;" xml:space="preserve">
<g>
	<g>
		<path d="M198.592,156.942v-89.94H91.147v89.94H0v128.571h91.147h12.072h83.3h12.072h91.147V156.942H198.592z M91.147,273.441
			H12.072V169.014h79.075V273.441z M186.519,273.441h-83.3V156.942V79.075h83.3L186.519,273.441L186.519,273.441z M277.666,273.441
			h-79.075V169.014h79.075V273.441z"/>
		<path d="M146.077,54.326h9.658V4.225h-7.847c-1.207,3.018-3.018,5.433-6.036,7.847c-3.018,2.414-5.433,3.622-7.847,4.829v8.451
			c4.829-1.811,9.054-4.225,12.072-7.244L146.077,54.326L146.077,54.326z"/>
		<path d="M48.893,116.499c-5.433,4.829-9.054,9.054-10.865,12.072c-1.811,3.018-3.018,6.036-3.018,9.658h33.199v-9.054l0,0H49.497
			c0.604-0.604,1.207-1.811,1.811-2.414c0.604-1.207,2.414-3.018,5.433-5.433c3.018-3.018,4.829-4.829,6.036-6.036
			c1.811-2.414,3.018-4.225,3.622-6.64s1.207-4.225,1.207-6.64c0-4.225-1.207-7.244-4.225-9.658
			c-3.018-2.414-6.64-4.225-11.469-4.225c-4.225,0-8.451,1.207-11.469,3.622c-3.018,2.414-4.829,6.036-5.433,11.469l9.658,1.207
			c0-3.018,0.604-4.829,1.811-6.036c1.207-1.207,3.018-1.811,4.829-1.811c1.811,0,3.622,0.604,4.829,1.811
			c1.207,1.207,1.811,3.018,1.811,4.829s-0.604,3.622-1.811,6.036C55.533,109.859,53.119,112.274,48.893,116.499z"/>
		<path d="M237.827,130.986c-1.811,0-3.622-0.604-4.829-1.811s-1.811-3.018-2.414-5.433l-9.054,1.207
			c0.604,4.225,2.414,7.847,5.433,10.262c3.018,2.414,6.64,3.622,11.469,3.622c4.829,0,8.451-1.811,12.072-4.829
			c3.018-3.018,4.829-6.64,4.829-10.865c0-3.018-0.604-5.433-2.414-7.847c-1.811-2.414-4.225-3.622-6.64-4.225
			c4.829-2.414,7.243-6.036,7.243-10.262c0-3.018-1.207-6.036-3.622-8.451c-3.018-3.018-6.64-4.225-11.469-4.225
			c-3.018,0-5.433,0.604-7.243,1.811s-4.225,2.414-5.433,4.225c-1.207,1.811-2.414,4.225-3.018,7.244l9.054,1.207
			c0-2.414,1.207-3.622,1.811-4.829c1.207-1.207,2.414-1.811,4.225-1.811s3.018,0.604,4.225,1.207
			c1.207,1.207,1.207,2.414,1.207,4.225c0,1.811-0.604,3.622-1.811,4.829c-1.207,1.207-3.018,1.811-6.036,1.811l-1.207,7.847
			c1.811-0.604,3.018-0.604,4.225-0.604c1.811,0,3.622,0.604,4.829,1.811c1.207,1.207,1.811,3.018,1.811,5.433
			s-0.604,4.829-1.811,6.036C241.449,130.382,239.638,130.986,237.827,130.986z"/>
	</g>
</g>
<g>
</g>
<g>
</g>
<g>
</g>
<g>
</g>
<g>
</g>
<g>
</g>
<g>
</g>
<g>
</g>
<g>
</g>
<g>
</g>
<g>
</g>
<g>
</g>
<g>
</g>
<g>
</g>
<g>
</g>
</svg>
