<?xml version="1.0" encoding="iso-8859-1"?>
<!-- Generator: Adobe Illustrator 16.0.0, SVG Export Plug-In . SVG Version: 6.00 Build 0)  -->
<!DOCTYPE svg PUBLIC "-//W3C//DTD SVG 1.1//EN" "http://www.w3.org/Graphics/SVG/1.1/DTD/svg11.dtd">
<svg version="1.1" id="Capa_1" xmlns="http://www.w3.org/2000/svg" xmlns:xlink="http://www.w3.org/1999/xlink" x="0px" y="0px"
	 width="365.188px" height="365.188px" viewBox="0 0 365.188 365.188" style="enable-background:new 0 0 365.188 365.188;"
	 xml:space="preserve">
<g>
	<g>
		<path d="M291.4,45.012H73.787C33.039,45.012,0,78.05,0,118.799v127.59c0,40.748,33.039,73.787,73.787,73.787H291.4
			c40.749,0,73.787-33.039,73.787-73.787v-127.59C365.188,78.05,332.149,45.012,291.4,45.012z M250.076,71.421
			c3.272,0,6.684,2.646,7.62,5.909l8.148,28.496c0.937,3.264,2.45,3.264,3.393,0.006l8.227-28.501
			c0.942-3.263,4.281-5.909,7.47-5.909s4.876,2.606,3.783,5.825l-14.142,41.466c-1.093,3.215-4.323,5.824-7.218,5.824
			c-2.9,0-6.125-2.609-7.218-5.824l-14.015-41.454C245.032,74.033,246.81,71.421,250.076,71.421z M75.588,75.081
			c0-3.813,2.769-6.899,6.185-6.899c3.42,0,6.188,3.086,6.188,6.899v8.92c0,3.813,3.086,6.899,6.896,6.899h9.368
			c3.81,0,6.896-3.086,6.896-6.899v-8.92c0-3.813,2.768-6.899,6.188-6.899c3.417,0,6.185,3.086,6.185,6.899v45.789
			c0,3.813-2.768,6.9-6.185,6.9c-3.419,0-6.188-3.086-6.188-6.9v-12.802c0-3.813-3.086-6.899-6.896-6.899h-9.368
			c-3.81,0-6.896,3.086-6.896,6.899v12.802c0,3.813-2.768,6.9-6.188,6.9c-3.417,0-6.185-3.086-6.185-6.9V75.081z M141.936,279.896
			H51.927v-135.15h90.009V279.896z M314.105,279.896H224.1v-135.15h90.006V279.896z"/>
		<path d="M89.412,218.484c-8.055,5.746-13.16,11.193-15.318,16.333c-2.231,4.569-3.422,9.626-3.564,15.162h52.831v-13.354H89.682
			c0.955-1.598,2.135-2.996,3.537-4.203c1.402-1.201,3.996-3.159,7.809-5.85l6.074-4.311c5.116-3.615,8.794-6.9,11.031-9.848
			c3.414-4.432,5.116-9.5,5.116-15.217c0-7.445-2.417-13.436-7.242-17.954c-4.828-4.521-11.328-6.789-19.495-6.789
			c-10.334,0-17.522,3.849-21.569,11.547c-2.134,4.038-3.32,9.347-3.567,15.91h14.733c0.174-4.336,0.745-7.482,1.696-9.477
			c1.667-3.44,4.81-5.16,9.421-5.16c3.369,0,5.957,1.086,7.768,3.245c1.808,2.155,2.711,4.876,2.711,8.137
			c0,4.011-1.582,7.698-4.734,11.066C100.923,209.903,96.404,213.482,89.412,218.484z"/>
		<path d="M266.553,248.118h16.178v-76.876h-13.188c0,0.672-0.204,1.699-0.612,3.075c-0.696,2.3-1.729,4.14-3.086,5.515
			c-1.994,2.011-4.57,3.36-7.746,4.029c-1.981,0.417-5.465,0.739-10.437,0.946v10.289h18.891V248.118z"/>
	</g>
</g>
<g>
</g>
<g>
</g>
<g>
</g>
<g>
</g>
<g>
</g>
<g>
</g>
<g>
</g>
<g>
</g>
<g>
</g>
<g>
</g>
<g>
</g>
<g>
</g>
<g>
</g>
<g>
</g>
<g>
</g>
</svg>
