<?xml version="1.0" encoding="iso-8859-1"?>
<!-- Generator: Adobe Illustrator 19.0.0, SVG Export Plug-In . SVG Version: 6.00 Build 0)  -->
<svg version="1.1" id="Layer_1" xmlns="http://www.w3.org/2000/svg" xmlns:xlink="http://www.w3.org/1999/xlink" x="0px" y="0px"
	 viewBox="0 0 480 480" style="enable-background:new 0 0 480 480;" xml:space="preserve">
<g>
	<g>
		<g>
			<path d="M392.582,45.619h-86.074V10c0-5.523-4.477-10-10-10H186.26c-5.523,0-10,4.477-10,10v35.619H87.418
				c-5.523,0-10,4.478-10,10V470c0,5.522,4.477,10,10,10h305.165c5.523,0,10-4.478,10-10V55.619
				C402.582,50.097,398.105,45.619,392.582,45.619z M196.26,20h90.248v71.239H196.26V20z M186.26,111.239h110.248h48.058V414.38
				H143.036V111.239H186.26z M382.583,460h-0.001H97.418V65.619h78.843v25.62h-43.223c-5.523,0-10,4.477-10,10V424.38
				c0,5.522,4.477,10,10,10h221.529c5.523,0,10-4.478,10-10V101.239c0-5.523-4.477-10-10-10h-48.058v-25.62h76.074V460z"/>
			<path d="M258.492,45.619h-34.215c-5.523,0-10,4.478-10,10c0,5.523,4.477,10,10,10h34.215c5.523,0,10-4.478,10-10
				C268.492,50.097,264.015,45.619,258.492,45.619z"/>
			<path d="M172.645,172.583l-15.163,15.178c-3.903,3.908-3.9,10.239,0.007,14.142c1.952,1.951,4.51,2.926,7.067,2.926
				c2.561,0,5.122-0.978,7.075-2.933l15.148-15.164l15.149,15.164c1.953,1.955,4.514,2.933,7.075,2.933
				c2.557,0,5.115-0.976,7.067-2.926c3.907-3.903,3.911-10.234,0.007-14.142l-15.163-15.178l15.163-15.179
				c3.903-3.907,3.9-10.238-0.007-14.142c-3.907-3.904-10.239-3.901-14.142,0.007l-15.149,15.164l-15.148-15.164
				c-3.903-3.907-10.235-3.909-14.142-0.007c-3.907,3.903-3.911,10.234-0.007,14.142L172.645,172.583z"/>
			<path d="M328.372,300.476c-3.904-3.905-10.237-3.907-14.142-0.002l-15.168,15.163l-15.168-15.163
				c-3.905-3.904-10.237-3.903-14.142,0.002c-3.904,3.906-3.903,10.238,0.003,14.143l15.163,15.159l-15.163,15.158
				c-3.906,3.904-3.907,10.236-0.003,14.143c1.953,1.953,4.512,2.93,7.072,2.93c2.559,0,5.118-0.976,7.07-2.928l15.168-15.163
				l15.168,15.163c1.953,1.952,4.511,2.928,7.07,2.928c2.56,0,5.12-0.977,7.072-2.93c3.905-3.906,3.903-10.238-0.002-14.143
				l-15.164-15.158l15.164-15.159C332.276,310.714,332.277,304.382,328.372,300.476z"/>
			<path d="M200.92,329.777l15.155-15.161c3.905-3.906,3.903-10.238-0.002-14.143c-3.905-3.904-10.237-3.903-14.142,0.002
				l-15.151,15.156l-15.151-15.156c-3.905-3.905-10.236-3.907-14.142-0.002c-3.906,3.904-3.907,10.236-0.002,14.143l15.155,15.161
				l-15.155,15.16c-3.905,3.907-3.904,10.239,0.002,14.143c1.953,1.952,4.511,2.928,7.07,2.928c2.56,0,5.12-0.977,7.072-2.93
				l15.151-15.156l15.151,15.156c1.953,1.953,4.512,2.93,7.072,2.93c2.559,0,5.117-0.976,7.07-2.928
				c3.906-3.904,3.907-10.236,0.002-14.143L200.92,329.777z"/>
			<path d="M256.648,232.274c-19.504,12.55-47.321,18.446-80.446,17.059c-5.528-0.22-10.179,4.053-10.411,9.572
				c-0.232,5.518,4.054,10.179,9.572,10.41c3.421,0.144,6.791,0.215,10.119,0.215c32.916,0,61.109-7.002,81.989-20.438
				c26.049-16.763,40.733-43.491,42.549-77.36l5.698,6.188c1.972,2.142,4.661,3.227,7.359,3.227c2.421,0,4.85-0.874,6.772-2.644
				c4.063-3.741,4.324-10.067,0.582-14.13l-24.117-26.191c-1.888-2.051-4.545-3.22-7.332-3.227c-0.008,0-0.016,0-0.024,0
				c-2.778,0-5.432,1.156-7.324,3.19l-24.228,26.059c-3.76,4.045-3.53,10.373,0.515,14.133c4.044,3.762,10.372,3.529,14.133-0.514
				l8.085-8.695c-0.003,0.05-0.012,0.099-0.014,0.148C288.963,197.532,277.7,218.727,256.648,232.274z M298.923,159.68l0.072,0.078
				c-0.054,0.007-0.108,0.012-0.162,0.019L298.923,159.68z"/>
		</g>
	</g>
</g>
<g>
</g>
<g>
</g>
<g>
</g>
<g>
</g>
<g>
</g>
<g>
</g>
<g>
</g>
<g>
</g>
<g>
</g>
<g>
</g>
<g>
</g>
<g>
</g>
<g>
</g>
<g>
</g>
<g>
</g>
</svg>
