<?xml version="1.0" encoding="iso-8859-1"?>
<!-- Generator: Adobe Illustrator 16.0.0, SVG Export Plug-In . SVG Version: 6.00 Build 0)  -->
<!DOCTYPE svg PUBLIC "-//W3C//DTD SVG 1.1//EN" "http://www.w3.org/Graphics/SVG/1.1/DTD/svg11.dtd">
<svg version="1.1" id="Capa_1" xmlns="http://www.w3.org/2000/svg" xmlns:xlink="http://www.w3.org/1999/xlink" x="0px" y="0px"
	 width="463.645px" height="463.645px" viewBox="0 0 463.645 463.645" style="enable-background:new 0 0 463.645 463.645;"
	 xml:space="preserve">
<g>
	<g>
		<path d="M462.451,165.344H263.221V0h-62.802v165.336H1.194v298.309h461.257V165.344z M61.46,190.685h17.234v31.643h32.264v-31.643
			h17.23v83.004h-17.23v-37.062H78.694v37.062H61.46V190.685z M162.403,441.416H27.249V294.88h135.143v146.536H162.403z
			 M353.481,190.685l18.014,63.01l18.186-63.01h18.018l-28.293,83.004h-16.382l-28.064-83.004H353.481z M438.899,441.416H303.756
			V294.88h135.143V441.416z"/>
		<rect x="37.942" y="301.296" width="13.431" height="60.841"/>
		<rect x="138.276" y="314.725" width="13.431" height="47.412"/>
		<rect x="83.765" y="301.296" width="54.511" height="13.429"/>
		<rect x="70.333" y="375.558" width="13.433" height="47.412"/>
		<rect x="83.765" y="422.97" width="54.511" height="13.429"/>
		<rect x="83.765" y="362.129" width="54.511" height="13.429"/>
		<rect x="397.338" y="314.725" width="13.433" height="47.412"/>
		<rect x="329.392" y="314.725" width="13.429" height="47.412"/>
		<rect x="342.821" y="301.296" width="54.518" height="13.429"/>
		<rect x="397.338" y="375.558" width="13.433" height="47.412"/>
		<rect x="342.821" y="362.129" width="54.518" height="13.429"/>
		<rect x="37.942" y="375.558" width="13.431" height="60.833"/>
	</g>
</g>
<g>
</g>
<g>
</g>
<g>
</g>
<g>
</g>
<g>
</g>
<g>
</g>
<g>
</g>
<g>
</g>
<g>
</g>
<g>
</g>
<g>
</g>
<g>
</g>
<g>
</g>
<g>
</g>
<g>
</g>
</svg>
