<?xml version="1.0" encoding="iso-8859-1"?>
<!-- Generator: Adobe Illustrator 17.1.0, SVG Export Plug-In . SVG Version: 6.00 Build 0)  -->
<!DOCTYPE svg PUBLIC "-//W3C//DTD SVG 1.1//EN" "http://www.w3.org/Graphics/SVG/1.1/DTD/svg11.dtd">
<svg version="1.1" id="Capa_1" xmlns="http://www.w3.org/2000/svg" xmlns:xlink="http://www.w3.org/1999/xlink" x="0px" y="0px"
	 viewBox="0 0 297.334 297.334" style="enable-background:new 0 0 297.334 297.334;" xml:space="preserve">
<g>
	<path d="M148.333,77.666c10.976,0,22.001,1.502,32.001,4.399V0h-66v82.644C125.334,79.365,136.645,77.666,148.333,77.666z"/>
	<path d="M214.334,97.958V10c0-5.523-4.145-10-9.667-10h-9.333v87.428C202.334,90.325,208.334,93.847,214.334,97.958z"/>
	<path d="M99.334,0h-7.667c-5.523,0-10.333,4.477-10.333,10v88.646c6-3.987,12-7.433,18-10.317V0z"/>
	<path d="M148.666,92.666C92.15,92.666,46.334,138.482,46.334,195S92.15,297.334,148.666,297.334
		C205.184,297.334,251,251.518,251,195S205.184,92.666,148.666,92.666z M148.666,276.627c-45.008,0-81.625-36.617-81.625-81.627
		s36.617-81.627,81.625-81.627c45.009,0,81.627,36.617,81.627,81.627S193.675,276.627,148.666,276.627z"/>
	<path d="M148.666,128.373c-36.736,0-66.625,29.889-66.625,66.627s29.889,66.627,66.625,66.627
		c36.738,0,66.627-29.889,66.627-66.627S185.404,128.373,148.666,128.373z M147.834,239.5c-4.143,0-7.5-3.357-7.5-7.5v-49
		l-3.597,5.634c-2.3,3.444-6.874,4.372-10.319,2.07c-3.444-2.301-4.329-6.958-2.029-10.402l17.521-26.196
		c1.834-2.746,5.093-3.973,8.257-3.011c3.161,0.958,5.167,3.873,5.167,7.177V232C155.334,236.143,151.977,239.5,147.834,239.5z"/>
</g>
<g>
</g>
<g>
</g>
<g>
</g>
<g>
</g>
<g>
</g>
<g>
</g>
<g>
</g>
<g>
</g>
<g>
</g>
<g>
</g>
<g>
</g>
<g>
</g>
<g>
</g>
<g>
</g>
<g>
</g>
</svg>
